<svg xmlns="http://www.w3.org/2000/svg" display="none" >

    <symbol viewBox="0 0 18 15" id="icon-twitter">
      <g>
        <path d="M17.353 2.482a7.394 7.394 0 0 1-2.098.565 3.605 3.605 0 0 0 1.606-1.983 7.41 7.41 0 0 1-2.32.87A3.681 3.681
          0 0 0 11.874.802C9.857.802 8.22 2.407 8.22 4.387c0 .28.033.554.095.816A10.44 10.44 0 0 1 .785 1.46 3.513 3.513
          0 0 0 .29 3.26c0 1.244.645 2.342 1.625 2.984A3.694 3.694 0 0 1 .26 5.796v.044c0 1.737 1.26 3.186 2.93
          3.515a3.717 3.717 0 0 1-1.65.062c.466 1.424 1.815 2.46 3.414 2.49A7.425 7.425 0 0 1 .416 13.44c-.295
          0-.586-.017-.871-.05a10.486 10.486 0 0 0 5.6 1.61c6.72 0 10.396-5.461 10.396-10.199
          0-.155-.004-.31-.011-.464a7.347 7.347 0 0 0 1.823-1.856z" />
      </g>
    </symbol>

    <symbol viewBox="0 0 9 19" id="icon-facebook">
      <g>
        <path d="M5.544 18.518H1.86V9.61H.017V6.538h1.842V4.696c0-2.505 1.04-3.994 3.993-3.994h2.46v3.07H6.775c-1.15
          0-1.226.429-1.226 1.23l-.005 1.536H8.33L8.004 9.61h-2.46z" />
      </g>
    </symbol>

    <symbol id="icon-you-tube">
      <path d="M17 0H3C1.35 0 0 1.35 0 3v10c0 1.65 1.35 3 3 3h14c1.65 0 3-1.35 3-3V3c0-1.65-1.35-3-3-3zM6.027
        11.998V4.002L15.014 8l-8.987 3.998z" />
    </symbol>

    <symbol viewBox="10 10 40 40" id="logo-htmlacademy">
      <path d="M30.2 5h-.2l-19.7 2.1v36.2l19.7 11.7 19.7-11.7v-36.2l-19.5-2.1zm17 36.8l-17.2 10.2-17.2-10.2v-14.8l17.1 10.2v1.8l-11.7-7v1.8l11.8 7.1v1.9l-11.8-7v1.8l11.8 7 11.9-7.1v-7.6l5.3-3.2v15.1zm-.1-17l-4.7 2.8-2.2 1.3-10.3-6.1v1.8l8.8 5.3h-.1l-.2.1-1.3.7-7.3-4.3v1.8l5.8 3.4-1.4.9-4.3-2.6v1.8l2.9 1.7-2.9 1.7-17-10.1 17-10.2 17.2 10zm.1-1.8l-17.3-10.2-17.1 10.2v-13.6l17.2-1.8 17.2 1.8v13.6z"/>
    </symbol>

    <symbol id="icon-like">
    <path d="M12.383 3.646l-.637 2.929L11.219 9H19.9v2l.001.058L17 18H8V8.029l.014-.015 4.369-4.368M2 10v8-8M13.2 0L6.6 6.6c-.4.3-.6.8-.6 1.4v10c0 1.1.9 2 2 2h9c.8 0 1.5-.5 1.8-1.2l3-7.1c.1-.2.1-.5.1-.7V9h.1c0-1.1-.9-2-2-2h-6.3l1-4.6v-.3c0-.4-.2-.8-.4-1.1l-1.1-1zM4 8H0v12h4V8zm18 1v.044V9z"/>
    </symbol>

    <symbol id="icon-fullscrean">
    <path d="M0 0v6h3V3h3V0H3zM3 14H0v6h6v-3H3zM17    0h-3v3h3v3h3V0zM17 17h-3v3h6v-6h-3z"/>
    </symbol>

     <symbol id="icon-subtitles" width="32" height="20" viewBox="0 0 32 20">
    <path d="M29 0H3C1.35 0 0 1.35 0 3v14c0 1.65 1.35 3 3 3h26c1.65 0 3-1.35 3-3V3c0-1.65-1.35-3-3-3zM14.403 15.854a8.61 8.61 0 01-1.678.164 5.986 5.986 0 01-1.976-.323c-.623-.214-1.172-.562-1.646-1.041s-.852-1.103-1.133-1.868c-.28-.766-.419-1.695-.419-2.786 0-1.134.157-2.085.471-2.851.315-.768.723-1.384 1.224-1.854a4.53 4.53 0 011.679-1.008 5.86 5.86 0 011.852-.307c.66 0 1.22.045 1.678.134.457.087.835.192 1.133.313l-.448 1.92a3.332 3.332 0 00-.902-.265A8.244 8.244 0 0012.973 6c-.915 0-1.649.325-2.206.977-.558.651-.836 1.663-.836 3.031 0 .598.067 1.142.199 1.632.132.493.334.913.603 1.26.271.349.607.619 1.01.812.402.193.867.29 1.396.29.496 0 .915-.049 1.257-.148.342-.099.639-.227.893-.38l.463 1.841c-.354.249-.803.43-1.349.539zm8.698 0a8.618 8.618 0 01-1.678.164 5.986 5.986 0 01-1.976-.323c-.623-.214-1.172-.562-1.646-1.041s-.852-1.103-1.133-1.868c-.281-.767-.421-1.695-.421-2.786 0-1.134.157-2.085.471-2.851.314-.768.723-1.384 1.223-1.854a4.526 4.526 0 011.68-1.008 5.858 5.858 0 011.851-.307c.661 0 1.221.045 1.678.134a6.05 6.05 0 011.133.313l-.446 1.918a3.314 3.314 0 00-.901-.265A8.569 8.569 0 0021.67 6c-.915 0-1.649.325-2.206.977-.558.651-.836 1.663-.836 3.031 0 .598.067 1.142.199 1.632.132.493.334.913.603 1.26.271.349.606.619 1.009.812.402.193.868.29 1.396.29.497 0 .915-.049 1.257-.148.342-.099.64-.227.894-.38l.463 1.841c-.353.249-.803.43-1.348.539z"/>
  </symbol>

     <symbol id="icon-replay" width="16" height="20">
    <path d="M8 4V0L3 5l5 5V6c3.315 0 6 2.686 6 6s-2.685 6-6 6-6-2.686-6-6H0c0 4.42 3.58 8 8 8s8-3.58 8-8-3.58-8-8-8z"/>
     </symbol>


  </svg>

